<svg id="Layer_1" data-name="Layer 1" xmlns="http://www.w3.org/2000/svg" viewBox="0 0 1199.69 1199.81"><defs><style>.cls-1{fill:#002b5c;}.cls-2{fill:#fefefe;}.cls-3{fill:#b72234;}</style></defs><g id="Roundel"><path class="cls-1" d="M636.79,1199.81h-75c-.44-1.3-1.59-.93-2.51-1q-22.41-1.65-44.67-4.79a583.37,583.37,0,0,1-148.49-41.27c-88.05-37.55-163.27-92.75-224.72-166.14-93-111-139-239.56-141.37-384-.29-18.43,1.05-36.9,2.64-55.32A589.58,589.58,0,0,1,41.92,380.38C133.06,149.8,358.47-5,613,.56c1.59,0,3.31.73,4.76-.56h4c.59,1.58,2,.91,3,.94a569,569,0,0,1,84.29,9.29c99.82,18.69,189.87,59.2,268.26,123.83q196.14,161.71,220.6,415.38c.43,4.48-.28,9.18,1.76,13.47v75c-1.47.63-.91,2-1,3a572.89,572.89,0,0,1-17.41,108.75c-33.68,127.79-101.53,233.89-204.19,317.08C882,1143.88,772.9,1187.4,650.8,1198.08,646.14,1198.49,641.27,1197.79,636.79,1199.81ZM220.93,600.06c-.12,209,169.51,379.23,378.16,379.54C809,979.91,979,810.58,979.5,600.77,980,392.1,809.9,221.21,601.56,221,391.15,220.88,221,390.27,220.93,600.06Z"/><path class="cls-2" d="M220.93,600.06C221,390.27,391.15,220.88,601.56,221,809.9,221.21,980,392.1,979.5,600.77,979,810.58,809,979.91,599.09,979.6,390.44,979.29,220.81,809.05,220.93,600.06ZM674.55,806v.87q-15,2.52-29.92,5.06c-9,1.54-17.6,3.9-24,11-1.18,1.32-2.63,2.91-1.52,4.87.91,1.6,2.7,1,4.13.84,20.23-1.78,40.46-3.66,60.71-5.37,4.44-.37,8.89-1.36,13.4-.57,1.68.29,3.49.77,4.1,2.45.76,2.11-1.46,2.73-2.64,3.69-7.34,6-14.93,11.76-21.12,19-1.24,1.47-3.27,3.13-2.27,5.14s3.61,1.3,5.45,1c19.13-3.41,36.74-10.41,52.1-22.51a17.71,17.71,0,0,0,6.92-13.81c.5-11,1.18-22,1.88-32.93.9-14.14,2.5-28.18,7-41.73,4.09-12.38,11.41-22,23.19-28.1,7.37-3.84,14.41-8.3,21.6-12.48A147.25,147.25,0,0,0,857.29,629c22.47-55.7,13.85-108.65-21.91-156.46-27.41-36.64-65.27-59-108.07-73.74C690,386,652.39,382.55,614,393.94c-25.27,7.5-48.32,19.64-70.42,33.66-13.91,8.82-28.94,13.9-45.07,16.49-26.43,4.26-53,7.64-78.7,15.76s-45.51,22.45-54.45,49a94,94,0,0,0-4.58,32.47,11.87,11.87,0,0,1-1.14,6.25c-8.57,16-15.68,32.67-22.47,49.47-11.56,28.66-20.48,58-22.82,89.05-1,12.75-.56,25.39,2.87,38,1.36-1.1,1.3-2.34,1.4-3.46a260.12,260.12,0,0,1,5.25-32c7.54-33.68,19.9-65.23,42.34-92,10.1-12.06,20.89-23.5,37.11-27.37,12.9-3.07,26.11-4.85,39.17-2.94,35.3,5.17,68.62,16,97.37,38.12,7.91,6.09,15.78,12.26,23.49,18.61,18,14.85,36.52,28.9,57.64,39.25,9,4.38,17.05,10.37,25.56,15.57,8.85,5.41,13.81,13.17,16.64,22.73a76,76,0,0,1,2.2,8.18c1.59,9.05,3,18.15-.72,27.05-2.22,5.34-6,8-10.44,7.57-13.11-1.32-26.25-1.94-39.41-2-6,0-12,.1-17.88,1.55-1.6.4-3.88.75-4,2.42-.18,1.95,2.2,2.19,3.72,2.59,6,1.58,12,3,18.06,4.51-.55,1.82-2,1.7-3,1.94-6.63,1.6-13.29,3-19.94,4.56-5.85,1.33-11.69,2.75-16.37,6.87-1.29,1.13-2.47,2.52-1.78,4.32.76,2,2.68,1.63,4.32,1.47q17.41-1.61,34.82-3.26c9.94-1,19.88-2,29.83-2.9,1.48-.14,3.56-.5,4.11.91.66,1.71-1.21,2.93-2.5,3.9-1.45,1.1-3.13,1.89-4.68,2.86-4,2.48-7.93,4.92-11.32,8.17-1.18,1.14-2.76,2.37-2.34,4.16.49,2,2.68,1.64,4.22,1.91a17.69,17.69,0,0,0,4.48.2,110.38,110.38,0,0,0,31.53-7c10.73-4.12,17-10.77,17.91-23.08s3.85-24.3,7.64-36c.42-1.28.39-3.62,2.68-1.58,11.39,10.13,22.73,20.3,25,36.68A105.34,105.34,0,0,1,720,777.4c-.72,11.32-2.87,14-13.88,16.66-9.83,2.41-19.87,1.64-29.83,2.13-5.15.26-10.35.17-15.33,1.76-1.57.5-3.54,1.18-3.59,3-.05,2.12,2.3,2.25,3.73,2.57C665.51,804.54,670,805.18,674.55,806Z"/><path class="cls-3" d="M674.55,806c-4.51-.78-9-1.42-13.5-2.41-1.43-.32-3.78-.45-3.73-2.57,0-1.85,2-2.53,3.59-3,5-1.59,10.18-1.5,15.33-1.76,10-.49,20,.28,29.83-2.13,11-2.7,13.16-5.34,13.88-16.66a105.34,105.34,0,0,0-.61-20.93c-2.23-16.38-13.57-26.55-25-36.68-2.29-2-2.26.3-2.68,1.58-3.79,11.75-6.76,23.82-7.64,36s-7.18,19-17.91,23.08a110.38,110.38,0,0,1-31.53,7,17.69,17.69,0,0,1-4.48-.2c-1.54-.27-3.73.14-4.22-1.91-.42-1.79,1.16-3,2.34-4.16,3.39-3.25,7.37-5.69,11.32-8.17,1.55-1,3.23-1.76,4.68-2.86,1.29-1,3.16-2.19,2.5-3.9-.55-1.41-2.63-1.05-4.11-.91-9.95.95-19.89,1.95-29.83,2.9Q595.41,770,578,771.6c-1.64.16-3.56.52-4.32-1.47-.69-1.8.49-3.19,1.78-4.32,4.68-4.12,10.52-5.54,16.37-6.87,6.65-1.52,13.31-3,19.94-4.56,1-.24,2.41-.12,3-1.94-6.05-1.5-12.07-2.93-18.06-4.51-1.52-.4-3.9-.64-3.72-2.59.15-1.67,2.43-2,4-2.42,5.87-1.45,11.89-1.6,17.88-1.55,13.16.09,26.3.71,39.41,2,4.46.45,8.22-2.23,10.44-7.57,3.71-8.9,2.31-18,.72-27.05a76,76,0,0,0-2.2-8.18c-2.83-9.56-7.79-17.32-16.64-22.73-8.51-5.2-16.6-11.19-25.56-15.57-21.12-10.35-39.62-24.4-57.64-39.25-7.71-6.35-15.58-12.52-23.49-18.61-28.75-22.14-62.07-33-97.37-38.12-13.06-1.91-26.27-.13-39.17,2.94-16.22,3.87-27,15.31-37.11,27.37-22.44,26.79-34.8,58.34-42.34,92a260.12,260.12,0,0,0-5.25,32c-.1,1.12,0,2.36-1.4,3.46-3.43-12.64-3.84-25.28-2.87-38,2.34-31,11.26-60.39,22.82-89.05,6.79-16.8,13.9-33.47,22.47-49.47a11.87,11.87,0,0,0,1.14-6.25,94,94,0,0,1,4.58-32.47c8.94-26.55,28.8-40.88,54.45-49s52.27-11.5,78.7-15.76c16.13-2.59,31.16-7.67,45.07-16.49,22.1-14,45.15-26.16,70.42-33.66,38.35-11.39,76-8,113.27,4.85,42.8,14.7,80.66,37.1,108.07,73.74,35.76,47.81,44.38,100.76,21.91,156.46a147.25,147.25,0,0,1-63.72,73.44c-7.19,4.18-14.23,8.64-21.6,12.48-11.78,6.14-19.1,15.72-23.19,28.1-4.49,13.55-6.09,27.59-7,41.73-.7,11-1.38,21.94-1.88,32.93A17.71,17.71,0,0,1,733,831.48c-15.36,12.1-33,19.1-52.1,22.51-1.84.32-4.4,1.16-5.45-1s1-3.67,2.27-5.14c6.19-7.29,13.78-13,21.12-19,1.18-1,3.4-1.58,2.64-3.69-.61-1.68-2.42-2.16-4.1-2.45-4.51-.79-9,.2-13.4.57-20.25,1.71-40.48,3.59-60.71,5.37-1.43.13-3.22.76-4.13-.84-1.11-2,.34-3.55,1.52-4.87,6.38-7.12,15-9.48,24-11q15-2.55,29.92-5.06Z"/></g></svg>