<?xml version="1.0" standalone="no"?>
<!DOCTYPE svg PUBLIC "-//W3C//DTD SVG 20010904//EN"
 "http://www.w3.org/TR/2001/REC-SVG-20010904/DTD/svg10.dtd">
<svg version="1.0" xmlns="http://www.w3.org/2000/svg"
 width="2000.000000pt" height="2000.000000pt" viewBox="0 0 2000.000000 2000.000000"
 preserveAspectRatio="xMidYMid meet">
<metadata>
Created by potrace 1.14, written by Peter Selinger 2001-2017
</metadata>
<g transform="translate(0.000000,2000.000000) scale(0.100000,-0.100000)"
fill="#000000" stroke="none">
<path d="M9685 17420 c-82 -9 -214 -42 -288 -71 -29 -11 -151 -67 -272 -124
-121 -57 -328 -153 -460 -215 -132 -62 -339 -158 -460 -215 -521 -244 -699
-326 -835 -390 -183 -85 -412 -192 -1290 -603 -129 -60 -298 -139 -375 -175
-77 -36 -183 -85 -235 -110 -91 -42 -156 -73 -510 -237 -387 -180 -499 -258
-637 -444 -92 -125 -99 -141 -299 -671 -59 -154 -130 -343 -159 -420 -29 -77
-106 -279 -170 -450 -64 -170 -142 -375 -172 -455 -55 -145 -121 -319 -213
-565 -27 -71 -103 -274 -170 -450 -66 -176 -168 -446 -226 -600 -162 -429
-202 -533 -339 -895 -210 -555 -228 -618 -228 -810 0 -194 37 -323 178 -625
127 -273 307 -656 390 -835 35 -74 113 -243 175 -375 62 -132 159 -341 217
-465 95 -202 157 -336 391 -835 38 -82 85 -184 105 -225 51 -110 165 -355 282
-605 225 -482 316 -677 389 -833 89 -191 152 -288 255 -395 81 -83 216 -182
307 -224 56 -25 234 -89 749 -268 149 -52 439 -153 645 -225 206 -72 497 -173
645 -225 149 -52 432 -151 630 -220 198 -69 488 -171 645 -225 157 -54 447
-156 645 -225 684 -240 930 -323 1010 -340 54 -13 121 -18 205 -18 216 0 315
28 655 188 132 62 301 141 375 175 157 73 249 116 455 212 83 39 249 117 370
173 121 57 330 155 465 218 135 63 344 161 465 217 121 56 290 135 375 175
204 96 297 139 460 215 74 34 239 111 365 170 127 60 338 158 470 220 521 243
693 327 765 375 137 91 277 251 355 405 25 49 113 275 255 655 45 120 77 205
203 540 25 66 80 210 122 320 42 110 94 247 115 305 21 58 73 195 115 305 42
110 118 313 170 450 83 219 167 442 370 980 29 77 105 277 168 445 63 168 145
384 182 480 155 405 177 492 177 680 0 92 -6 149 -21 215 -38 161 -34 151
-343 810 -39 83 -83 177 -98 210 -15 33 -61 132 -102 220 -42 88 -122 259
-178 380 -56 121 -153 328 -215 460 -62 132 -141 301 -175 375 -34 74 -111
239 -170 365 -123 262 -326 696 -605 1295 -333 714 -335 717 -470 858 -82 87
-228 192 -320 232 -50 22 -295 110 -800 285 -148 52 -432 151 -630 220 -198
69 -481 168 -630 220 -148 52 -432 151 -630 220 -198 69 -481 168 -630 220
-148 51 -432 150 -630 220 -705 247 -935 324 -1007 339 -96 19 -236 26 -323
16z m4377 -2815 c108 -16 154 -32 182 -63 40 -45 1 -279 -57 -340 -24 -26 -41
-26 -177 -2 -121 22 -248 -6 -313 -68 -38 -36 -74 -107 -94 -189 -24 -96 -24
-456 0 -562 23 -102 63 -169 122 -206 42 -26 59 -30 137 -33 l88 -4 0 166 0
166 -55 0 c-116 0 -138 35 -133 210 3 109 5 120 27 144 l24 26 244 0 243 0 32
-29 33 -29 3 -399 c2 -219 0 -417 -3 -440 -12 -83 -80 -130 -262 -180 -86 -24
-116 -27 -248 -28 -172 0 -257 19 -377 82 -79 41 -178 136 -227 217 -48 80
-97 232 -115 357 -21 140 -21 423 -1 549 46 281 156 468 339 575 140 81 371
113 588 80z m-7307 -29 c31 -31 37 -70 33 -211 l-3 -117 -33 -29 -32 -29 -145
0 -145 0 0 -684 0 -684 -30 -26 c-38 -31 -91 -39 -225 -34 -86 3 -109 7 -132
24 -54 40 -53 19 -53 737 l0 667 -134 0 c-74 0 -146 4 -161 10 -42 16 -55 63
-55 200 0 126 10 168 47 189 12 7 201 11 531 11 l513 0 24 -24z m667 -442
c183 -54 301 -185 360 -399 19 -70 22 -105 22 -285 0 -228 -13 -301 -75 -428
-35 -73 -124 -172 -184 -207 -95 -56 -150 -69 -300 -69 -150 0 -205 13 -300
69 -61 35 -150 136 -185 210 -62 130 -74 197 -74 425 0 179 3 215 22 283 68
247 209 382 436 418 69 11 212 2 278 -17z m1400 4 c55 -19 106 -58 138 -106
16 -25 30 -52 30 -59 0 -8 31 17 68 56 92 95 156 125 267 125 183 1 284 -79
321 -253 19 -91 20 -1043 1 -1081 -23 -47 -79 -64 -207 -64 -128 0 -184 17
-207 64 -10 19 -13 136 -13 471 0 442 0 447 -22 474 -19 24 -26 27 -68 23 -27
-3 -61 -15 -79 -27 l-31 -22 0 -447 c0 -336 -3 -453 -13 -472 -23 -46 -79 -64
-202 -64 -118 0 -171 12 -201 45 -18 20 -19 50 -24 491 -5 455 -6 470 -25 485
-27 20 -108 12 -143 -14 l-27 -20 -5 -461 c-5 -431 -6 -461 -24 -481 -29 -32
-83 -45 -196 -45 -113 0 -167 13 -196 45 -18 20 -19 54 -26 583 -4 308 -9 587
-10 620 -3 53 0 61 22 77 34 26 149 49 246 49 103 0 124 -14 148 -98 l16 -60
60 59 c64 63 136 105 204 119 49 11 150 4 198 -12z m1887 -3 c59 -20 108 -61
138 -114 15 -25 28 -47 29 -49 1 -2 32 26 69 63 92 92 153 119 265 119 155 -1
249 -61 301 -190 l24 -59 3 -530 c2 -414 0 -535 -10 -555 -24 -47 -80 -64
-208 -64 -128 0 -184 17 -207 64 -10 19 -13 136 -13 471 0 442 0 447 -22 474
-19 24 -26 27 -68 23 -27 -3 -61 -15 -79 -27 l-31 -22 0 -447 c0 -336 -3 -453
-13 -472 -23 -47 -79 -64 -207 -64 -83 1 -125 5 -153 17 -67 29 -67 30 -67
532 0 440 0 445 -21 466 -18 18 -30 21 -71 17 -27 -3 -61 -14 -76 -25 l-27
-20 -5 -461 c-6 -515 -1 -487 -79 -514 -54 -18 -247 -15 -294 5 -68 29 -67 24
-67 588 0 326 -4 532 -12 590 -10 77 -9 90 5 113 23 35 99 56 224 63 148 8
164 -1 193 -113 l10 -42 58 57 c65 63 140 107 204 121 54 11 154 4 207 -15z
m1264 -6 c20 -5 43 -20 51 -32 8 -13 37 -192 71 -437 31 -228 59 -425 63 -438
5 -14 31 149 69 425 70 500 62 476 148 489 24 3 97 5 162 3 140 -5 173 -18
173 -72 0 -17 -108 -430 -240 -917 -189 -701 -243 -888 -260 -902 -27 -22
-110 -32 -233 -26 -121 5 -161 20 -165 62 -2 19 24 100 73 228 l77 198 -182
676 c-200 740 -196 718 -130 741 44 15 272 17 323 2z m-278 -2026 c280 -47
396 -78 591 -158 409 -169 716 -473 893 -885 13 -30 28 -64 32 -75 34 -77 92
-297 118 -445 43 -245 46 -327 46 -1310 0 -1028 -3 -1092 -61 -1386 -137 -697
-540 -1177 -1160 -1383 -253 -83 -482 -119 -804 -127 -129 -3 -249 -7 -267
-10 -28 -4 -59 -41 -293 -354 -157 -209 -287 -373 -325 -409 -73 -68 -161
-120 -255 -151 -36 -11 -74 -25 -86 -31 -11 -6 -68 -9 -135 -7 -98 4 -126 8
-196 35 -207 78 -255 125 -579 559 -210 280 -263 345 -288 353 -17 5 -161 12
-321 15 -604 12 -978 102 -1299 313 -99 65 -270 239 -340 346 -184 282 -273
579 -323 1072 -16 160 -18 286 -18 1145 0 862 2 982 18 1120 27 236 71 445
129 610 45 128 151 333 226 439 290 408 718 641 1336 726 60 8 112 17 114 20
3 3 706 4 1561 2 1544 -3 1557 -3 1686 -24z m-161 -7049 c14 -13 16 -61 16
-375 0 -346 -1 -360 -20 -379 -27 -27 -85 -27 -100 -1 -6 12 -10 106 -10 236
l0 216 -37 -37 c-58 -57 -114 -78 -208 -79 -55 0 -90 5 -112 16 l-31 17 -4
-175 c-3 -170 -4 -175 -27 -194 -27 -22 -83 -25 -100 -5 -9 10 -11 104 -9 344
3 308 4 331 22 351 22 24 73 28 98 9 9 -7 18 -35 22 -62 11 -89 81 -176 142
-176 11 0 41 7 67 16 65 22 119 84 147 170 35 105 99 153 144 108z m2000 -20
c26 -10 38 -41 26 -64 -19 -36 -63 -50 -160 -50 l-90 0 -2 -172 c-2 -95 -1
-230 1 -299 3 -118 2 -128 -18 -148 -29 -29 -76 -28 -96 3 -14 21 -16 63 -13
315 l3 291 -106 0 c-92 0 -108 3 -123 19 -22 25 -14 56 22 79 21 13 59 18 186
23 248 9 353 10 370 3z m-6882 -28 c81 -29 145 -74 226 -160 70 -75 107 -148
122 -238 16 -105 -7 -194 -67 -250 -57 -53 -110 -72 -214 -76 -94 -4 -96 -5
-113 -33 -14 -24 -24 -29 -55 -29 -34 0 -40 4 -51 33 -7 17 -19 46 -25 62 -13
32 -36 373 -35 537 0 102 10 143 38 164 26 20 100 16 174 -10z m948 4 c39 -39
18 -86 -45 -100 -22 -5 -93 -10 -157 -10 l-118 0 0 -69 0 -68 53 -7 c28 -3 88
-6 131 -6 60 0 84 -4 98 -17 23 -21 23 -34 -3 -67 -20 -26 -22 -26 -145 -26
l-124 0 0 -120 0 -120 148 0 c102 0 152 -4 160 -12 19 -19 14 -66 -8 -88 -19
-19 -33 -20 -210 -20 l-189 0 -16 30 c-12 22 -15 65 -15 188 0 87 -4 162 -8
168 -5 5 -6 82 -3 172 5 147 8 165 25 178 16 11 62 14 213 14 180 0 194 -1
213 -20z m748 4 c30 -21 28 -43 -14 -136 -19 -43 -57 -147 -83 -231 -69 -219
-110 -329 -128 -349 -23 -26 -69 -23 -87 5 -8 12 -38 76 -67 142 -29 66 -92
198 -141 293 -48 96 -88 185 -88 198 0 59 81 85 123 40 19 -20 140 -273 192
-401 l17 -40 72 200 c78 216 88 238 119 273 24 26 54 28 85 6z m590 0 c32 -22
30 -69 -5 -91 -22 -14 -54 -19 -170 -22 l-143 -3 0 -64 c0 -34 5 -66 11 -70 6
-3 68 -9 137 -11 70 -3 133 -10 140 -16 18 -15 15 -54 -8 -77 -18 -18 -33 -20
-145 -20 l-125 0 0 -120 0 -120 149 0 c123 0 152 -3 165 -16 22 -21 20 -46 -5
-78 l-20 -26 -189 0 -190 0 -16 24 c-13 21 -15 54 -15 190 1 90 -2 167 -7 170
-5 3 -7 78 -4 168 3 128 8 167 20 181 13 15 37 17 206 17 157 0 196 -3 214
-16z m274 -1 c22 -20 23 -57 3 -248 -16 -150 -20 -361 -7 -368 4 -3 60 0 126
5 136 10 156 3 156 -58 0 -59 -25 -67 -217 -66 -150 0 -168 2 -181 19 -11 15
-13 82 -10 361 3 327 4 344 22 358 27 19 85 18 108 -3z m790 -10 c50 -20 122
-101 143 -161 22 -63 30 -194 16 -266 -24 -126 -109 -248 -196 -282 -107 -40
-231 1 -307 101 -64 85 -83 151 -83 290 0 106 3 126 24 169 45 90 107 137 215
161 67 15 130 11 188 -12z m645 -2 c49 -23 67 -38 88 -75 24 -41 27 -55 23
-109 -10 -146 -91 -220 -240 -221 l-78 -1 0 -138 c0 -76 -5 -147 -10 -158 -13
-23 -76 -26 -106 -5 -18 14 -19 31 -22 323 -2 169 0 323 3 341 9 51 63 72 185
72 84 0 102 -3 157 -29z m1461 13 c28 -19 29 -65 2 -89 -18 -16 -43 -19 -165
-23 l-145 -5 0 -67 0 -67 53 -7 c28 -3 88 -6 133 -6 49 0 85 -5 92 -12 16 -16
15 -50 -2 -74 -13 -17 -31 -20 -143 -24 -150 -6 -140 6 -128 -147 l7 -93 143
0 c117 0 146 -3 159 -16 22 -21 20 -56 -4 -82 -20 -21 -28 -22 -210 -22 -184
0 -189 1 -204 22 -13 18 -16 55 -16 190 0 92 -4 169 -8 172 -5 3 -7 78 -4 168
3 148 6 165 24 181 18 15 43 17 207 17 153 0 191 -3 209 -16z m711 -10 c20
-26 21 -38 21 -358 0 -375 1 -371 -68 -371 -51 0 -67 15 -122 112 -90 162
-235 381 -245 371 -2 -2 -9 -102 -15 -223 -6 -120 -16 -227 -21 -236 -19 -36
-93 -25 -105 14 -7 23 3 517 13 586 6 47 32 81 61 81 11 0 34 -12 53 -27 63
-49 239 -279 297 -388 l27 -50 3 80 c2 44 -1 144 -7 222 -6 78 -8 150 -4 160
20 58 77 71 112 27z"/>
<path d="M7180 13772 c-46 -47 -54 -95 -55 -322 0 -291 21 -350 123 -350 52 0
85 28 102 86 6 22 14 111 17 199 6 171 -6 303 -32 359 -29 62 -107 75 -155 28z"/>
<path d="M8505 11633 c-237 -16 -512 -86 -685 -173 -156 -79 -309 -205 -411
-339 -94 -124 -196 -359 -235 -541 -49 -232 -47 -202 -51 -1320 -3 -907 -2
-1078 12 -1220 56 -585 217 -890 560 -1063 216 -108 477 -149 1040 -163 175
-4 266 -10 305 -21 76 -21 176 -75 238 -129 30 -26 164 -195 318 -400 178
-236 278 -361 302 -376 51 -31 152 -31 204 1 26 16 116 128 303 376 264 352
332 429 421 479 94 52 160 64 401 70 329 9 516 32 716 91 462 134 753 445 872
930 62 255 65 301 65 1385 0 1048 -2 1106 -51 1340 -38 185 -120 389 -209 520
-97 143 -259 286 -415 367 -164 84 -289 123 -530 166 -118 21 -141 21 -1620
22 -825 1 -1522 0 -1550 -2z m1916 -1534 c43 -21 96 -79 115 -125 8 -19 14
-60 14 -93 0 -56 -20 -105 -325 -818 -211 -491 -336 -772 -356 -796 -47 -58
-101 -81 -184 -82 -59 0 -77 4 -118 28 -91 54 -143 166 -119 259 15 56 647
1525 671 1558 64 89 201 120 302 69z m-1566 -93 c120 -56 171 -176 129 -302
-15 -43 -49 -81 -266 -298 l-249 -250 245 -245 c261 -262 286 -295 285 -381 0
-167 -162 -286 -320 -235 -50 16 -79 43 -410 374 -318 317 -358 361 -373 405
-21 66 -20 121 5 176 30 67 684 723 754 756 66 31 134 31 200 0z m2490 0 c39
-18 127 -101 391 -367 188 -189 349 -359 358 -377 27 -53 31 -122 11 -183 -16
-50 -43 -79 -364 -401 -245 -246 -358 -352 -386 -364 -54 -23 -150 -23 -195 0
-116 60 -169 174 -135 292 16 57 26 68 262 306 l246 247 -245 243 c-135 134
-253 258 -262 277 -10 18 -20 57 -23 87 -19 182 177 319 342 240z"/>
<path d="M6574 4778 c15 -240 27 -363 39 -371 17 -11 174 1 205 16 14 6 34 24
45 39 19 25 20 33 9 90 -16 87 -56 161 -118 222 -45 45 -155 116 -179 116 -4
0 -4 -51 -1 -112z"/>
<path d="M9790 4878 c-32 -17 -52 -37 -68 -68 -21 -40 -23 -56 -20 -140 4 -78
9 -104 31 -146 34 -66 76 -101 132 -109 64 -10 102 14 140 90 28 55 30 68 30
165 0 88 -4 112 -22 150 -28 56 -51 71 -122 77 -46 4 -64 0 -101 -19z"/>
<path d="M10435 4898 c-2 -7 -5 -48 -7 -91 l-3 -77 76 0 c90 0 123 18 133 76
10 50 -11 78 -68 93 -60 15 -126 14 -131 -1z"/>
</g>
</svg>
