<svg id="Layer_1" data-name="Layer 1" xmlns="http://www.w3.org/2000/svg" viewBox="0 0 428.06 427.95"><path d="M.27,214c0-39.31-.72-78.64.2-117.93.9-38.22,17-68.24,52.31-85.87,15.5-7.74,32.35-10,49.39-10q112-.27,223.93,0c21.74.06,42.73,4,61.08,16.75C411.23,33.59,423.9,57,427,85.83a220.09,220.09,0,0,1,1.09,23.39q-.06,107.7-.07,215.4c0,22.28-3.81,43.72-16.88,62.52-17.32,24.92-41.74,37.2-71.51,39.94-8.3.77-16.6.84-24.91.84-70.48,0-141,.12-211.44-.08-21-.06-41.47-3.39-59.61-15.08-23.42-15.08-37.12-36.57-41.54-64a180.55,180.55,0,0,1-2-29.3C.15,284.3.1,249.15.1,214Zm173.48-10.65q0,27.5,0,55c0,3.14.58,5.79,3,8.11,6.58,6.38,13,12.91,19.46,19.42a9.38,9.38,0,0,0,7.12,3q15.75-.07,31.5,0a9.44,9.44,0,0,0,7.09-3.05q9.66-9.78,19.43-19.44a9.37,9.37,0,0,0,2.95-7.11q-.06-55.73-.05-111.45c0-5.9-2.65-8.54-8.54-8.62-7.33-.1-14.66-.06-22,0-6.81.05-9.39,2.61-9.43,9.36,0,9.49,0,19,0,28.49q0,35,0,70c0,1.39.81,3.73-.79,4a20.6,20.6,0,0,1-8.88-.09c-1.87-.51-.83-3.28-.83-5q-.09-48.24-.05-96.46c0-8.12-2.22-10.3-10.43-10.31-6.16,0-12.33,0-18.49,0-9,0-11,1.94-11,10.73Q173.74,176.61,173.75,203.35Zm-27.48,85.46v0c3.5,0,7,0,10.5,0,7.88-.06,10.78-3.51,9.08-11q-14.76-65.49-29.58-131c-1.35-5.93-3.38-7.63-9.21-7.67-8-.06-16,0-24,0-5.07,0-8.07,2.1-9.15,7.23-2,9.45-4.21,18.84-6.34,28.25q-11.65,51.6-23.29,103.2c-1.69,7.52,1.2,10.95,9.11,11,6.17,0,12.33,0,18.5,0,8.14,0,9.84-1.43,11.29-9.38,2.48-13.67,2.48-13.57,16.38-13.48,2.89,0,4.18.73,4.54,3.7.51,4.12,1.42,8.2,2.25,12.28.92,4.54,3.7,6.91,8.41,6.88C138.6,288.79,142.44,288.81,146.27,288.81ZM339.14,231c0-16.82.09-33.65-.07-50.47,0-3.11.82-4,3.89-3.87,4.49.25,9,.19,13.49,0,5.1-.18,7.79-2.78,7.89-7.74q.23-11,0-22c-.1-4.77-2.7-7.69-7.38-7.71q-37.72-.19-75.46,0c-4.92,0-7.49,3-7.55,8q-.15,10.74,0,21.48c.08,5,2.66,7.7,7.69,7.93a88.08,88.08,0,0,0,12.48,0c4.25-.41,5.14,1,5.12,5.16-.19,32.47-.12,64.95-.1,97.43,0,7.13,2.47,9.56,9.65,9.59q10.24,0,20.49,0c7.49,0,9.85-2.38,9.86-9.84Q339.17,255,339.14,231Z"/><path d="M256.93,204.09c0,17.48-.05,35,.06,52.46a8.11,8.11,0,0,1-2.69,6.52q-8,7.59-15.54,15.55a8.15,8.15,0,0,1-6.53,2.81q-13.23-.26-26.48,0a8.1,8.1,0,0,1-6.53-2.77c-5.9-6.11-14.23-11.12-17.27-18.37s-.9-16.69-.91-25.17c0-28,.06-56-.11-83.94,0-3.68.75-4.92,4.59-4.67a129.46,129.46,0,0,0,16.48,0c3.62-.22,4.33,1,4.32,4.44-.13,34.14,0,68.29-.2,102.43,0,4.52,1.15,5.76,5.52,5.41a109.56,109.56,0,0,1,15.48,0c3.79.25,4.73-1,4.7-4.7-.17-26.48-.09-53-.09-79.45,0-8.16.12-16.32-.06-24.48-.07-2.87.82-3.71,3.65-3.61,5.65.2,11.33.28,17,0,3.66-.2,4.79.73,4.73,4.61C256.8,168.78,256.93,186.43,256.93,204.09Z"/><path d="M115.07,146.49c3.16,0,9.93-1.07,13,.87s2.57,7.82,3.51,12c8.83,38.9,17.5,77.83,26.44,116.71,1,4.44.39,5.78-4.32,5.41a150.8,150.8,0,0,0-16.47,0c-2.68.08-3.81-.76-4.21-3.51-.79-5.42-2.09-10.77-3-16.18-.37-2.28-1.32-3-3.6-3-7.82.12-15.65.17-23.47,0-2.88-.07-3.62,1.12-4,3.69-.8,5.25-2.07,10.43-2.9,15.69-.39,2.43-1.32,3.4-3.87,3.33-5.65-.17-11.33-.32-17,0-4.23.27-3.92-1.5-3.22-4.59q12.87-56.64,25.57-113.32c1-4.54,2.2-9,3-13.63.48-2.68,1.69-3.31,4.34-3.36C108.07,146.49,112.07,146.49,115.07,146.49Zm-.21,35.43h-.6c-3.35,17.74-6.67,35.49-10.07,53.22-.47,2.47.68,2.74,2.67,2.71q7.73-.12,15.44,0c2,0,3.12-.26,2.65-2.72Q119.84,208.54,114.86,181.92Z"/><path d="M331.9,225.48c0,17.16-.09,34.32.07,51.47,0,3.38-.71,4.69-4.33,4.5a155.31,155.31,0,0,0-17,0c-3.68.2-4.3-1.24-4.29-4.56.11-34,0-68,.17-101.94,0-4.43-.9-6.16-5.64-5.76-5.46.45-11,.05-16.48.13-2.1,0-3.41-.17-3.32-2.88.19-5.65.14-11.32,0-17-.05-2.17.67-2.89,2.83-2.89q35.24.09,70.46,0c2.3,0,2.76.88,2.71,2.94-.11,5.49-.17,11,0,16.48.09,2.59-.62,3.47-3.3,3.37-5.65-.19-11.34.25-17-.15-4.37-.32-5.1,1.36-5.05,5.32C332,191.5,331.9,208.49,331.9,225.48Z"/><path d="M114.56,220.42c.69,3.57,1.14,5.82,1.56,8.09.22,1.21-.25,1.87-1.55,1.87s-1.77-.68-1.55-1.88C113.43,226.24,113.88,224,114.56,220.42Z"/></svg>